<svg xmlns="http://www.w3.org/2000/svg" width="226" height="256" viewBox="0 0 226 256">
  <g fill="#689F63">
    <path d="M113.214836,255.837091 C109.817018,255.837091 106.442473,254.945745 103.463564,253.230545 L72.4247273,234.8544 C67.7888,232.261818 70.0509091,231.344873 71.5799273,230.816582 C77.7611636,228.652218 79.0155636,228.163491 85.6133818,224.416582 C86.3069091,224.020945 87.2145455,224.160582 87.9243636,224.579491 L111.7696,238.729309 C112.630691,239.194764 113.852509,239.194764 114.650764,238.729309 L207.625309,185.0624 C208.4864,184.573673 209.044945,183.572945 209.044945,182.548945 L209.044945,75.2616727 C209.044945,74.1911273 208.4864,73.2369455 207.606691,72.7016727 L114.669382,19.0813091 C113.808291,18.5693091 112.667927,18.5693091 111.806836,19.0813091 L18.8881455,72.7016727 C17.9874909,73.2136727 17.4149818,74.2144 17.4149818,75.2384 L17.4149818,182.525673 C17.4149818,183.549673 17.9735273,184.527127 18.8578909,185.015855 L44.3182545,199.724218 C58.1422545,206.636218 66.5902545,198.490764 66.5902545,190.298764 L66.5902545,84.4078545 C66.5902545,82.8951273 67.7771636,81.7314909 69.2898909,81.7314909 L81.0658909,81.7314909 C82.5320727,81.7314909 83.7422545,82.8951273 83.7422545,84.4078545 L83.7422545,190.345309 C83.7422545,208.777309 73.6884364,219.3664 56.2106182,219.3664 C50.8346182,219.3664 46.5989818,219.3664 34.7764364,213.548218 L10.3866182,199.491491 C4.35898182,196.000582 0.635345455,189.484218 0.635345455,182.525673 L0.635345455,75.2384 C0.635345455,68.2565818 4.35898182,61.7402182 10.3866182,58.2958545 L103.454255,4.60567273 C109.342255,1.27767273 117.161891,1.27767273 123.003345,4.60567273 L215.954618,58.3191273 C221.958982,61.7867636 225.705891,68.2798545 225.705891,75.2616727 L225.705891,182.548945 C225.705891,189.507491 221.958982,196.000582 215.954618,199.491491 L123.003345,253.181673 C120.024436,254.903855 116.649891,255.788218 113.205527,255.788218"/>
    <path d="M141.933382,181.908945 C101.252655,181.908945 92.7232,163.234909 92.7232,147.572364 C92.7232,146.082909 93.9240727,144.896 95.4158545,144.896 L107.424582,144.896 C108.751127,144.896 109.868218,145.861818 110.077673,147.172073 C111.892945,159.408873 117.292218,165.5808 141.891491,165.5808 C161.487127,165.5808 169.818764,161.154327 169.818764,150.763055 C169.818764,144.781964 167.444945,140.336873 137.004218,137.357964 C111.543855,134.844509 95.8114909,129.235782 95.8114909,108.872145 C95.8114909,90.1143273 111.636945,78.9434182 138.144582,78.9434182 C167.9104,78.9434182 182.665309,89.2765091 184.527127,111.478691 C184.596945,112.246691 184.317673,112.991418 183.805673,113.549964 C183.293673,114.085236 182.572218,114.411055 181.827491,114.411055 L169.748945,114.411055 C168.492218,114.411055 167.3984,113.526691 167.1424,112.316509 C164.233309,99.4466909 157.204945,95.3274182 138.098036,95.3274182 C116.7104,95.3274182 114.220218,102.774691 114.220218,108.360145 C114.220218,115.132509 117.152582,117.110691 146.010764,120.927418 C174.589673,124.720873 188.157673,130.0736 188.157673,150.157964 C188.157673,170.405236 171.261673,182.018327 141.7984,182.018327"/>
  </g>
</svg>
