<svg xmlns="http://www.w3.org/2000/svg" width="213" height="256" viewBox="0 0 213 256">
  <g fill="none">
    <path fill="#FF3E00" d="M199.215847,33.8341876 C175.470772,-0.151180772 128.574246,-10.2245727 94.6658211,11.3795651 L35.1143116,49.334471 C18.8475879,59.5682101 7.64327497,76.179827 4.24890921,95.0957989 C1.40817056,110.853963 3.9050122,127.109466 11.3441206,141.288648 C6.24664666,149.021211 2.76994849,157.707055 1.12414853,166.821226 C-2.30303394,186.100445 2.1800476,205.947461 13.5613171,221.88172 C37.3114161,255.870284 84.2081696,265.939338 118.111343,244.336342 L177.662853,206.381436 C193.930726,196.148884 205.135421,179.536702 208.528255,160.620108 C211.368617,144.862129 208.873733,128.606943 201.438295,114.426117 C206.53444,106.693731 210.009678,98.0082385 211.65393,88.8946809 C215.083377,69.6154094 210.600098,49.7675192 199.216761,33.8341876"/>
    <path fill="#FFF" d="M88.8425209,225.114818 C69.641297,230.107483 49.3643674,222.591456 38.0562378,206.289925 C31.2085264,196.705263 28.5110434,184.765983 30.5729627,173.168337 C30.9185939,171.283461 31.3942386,169.424761 31.9964887,167.605555 L33.1183177,164.184798 L36.1702314,166.4264 C43.2183938,171.605187 51.0989966,175.542631 59.4723909,178.06903 L61.6863587,178.740712 L61.4824106,180.95034 C61.2118856,184.093798 62.063046,187.231522 63.8850247,189.807353 C67.2881299,194.717713 73.3931522,196.983662 79.1758821,195.48273 C80.470499,195.136708 81.7044662,194.594397 82.8348441,193.874668 L142.405514,155.912908 C145.352701,154.057112 147.383804,151.047671 148.002326,147.620236 C148.619778,144.124715 147.80717,140.527677 145.74702,137.637054 C142.341881,132.725675 136.235332,130.458764 130.450225,131.958481 C129.157313,132.30453 127.924987,132.846446 126.796059,133.5654 L104.064406,148.056224 C100.326467,150.432879 96.2472204,152.224236 91.9679751,153.368239 C72.7669128,158.36061 52.4903023,150.84451 41.1823768,134.543117 C34.3343895,124.958666 31.6368772,113.019338 33.6991017,101.421758 C35.7404878,90.0436081 42.4810036,80.0519751 52.2668325,73.8983511 L111.832249,35.933394 C115.571777,33.5528361 119.653938,31.759227 123.936674,30.6149839 C143.137612,25.6227403 163.414048,33.1387184 174.722044,49.4398766 C181.569755,59.0245386 184.267239,70.9638194 182.205319,82.5614651 C181.858198,84.4460135 181.382579,86.3046117 180.781793,88.1242473 L179.659965,91.5450041 L176.609649,89.3068268 C169.561983,84.1250776 161.680623,80.1858271 153.305891,77.6591731 L151.091923,76.9872633 L151.295871,74.7776348 C151.56407,71.6344572 150.71312,68.4975913 148.893257,65.9208501 C145.490152,61.0104899 139.38513,58.7445411 133.6024,60.2454737 C132.307783,60.5914951 131.073816,61.133806 129.943438,61.8535351 L70.3727679,99.8168935 C67.4259853,101.67123 65.396026,104.680481 64.7802953,108.107282 C64.1590219,111.602639 64.9702651,115.200967 67.0312615,118.091606 C70.436444,123.002929 76.5429531,125.269826 82.3280569,123.770179 C83.6223526,123.423448 84.8561396,122.881183 85.9867902,122.162118 L108.715474,107.676776 C112.451795,105.296987 116.53086,103.504043 120.810535,102.360421 C140.011597,97.3680499 160.288209,104.88415 171.596133,121.185543 C178.444121,130.769994 181.141633,142.709322 179.079409,154.306902 C177.036684,165.685643 170.296654,175.678132 160.511678,181.834648 L100.946032,219.796408 C97.2065047,222.176966 93.1243437,223.970575 88.8416075,225.114818"/>
  </g>
</svg>
